<?xml version="1.0" encoding="utf-8"?>
<!-- Generator: Adobe Illustrator 23.0.2, SVG Export Plug-In . SVG Version: 6.00 Build 0)  -->
<svg version="1.1" id="Layer_1" xmlns="http://www.w3.org/2000/svg" xmlns:xlink="http://www.w3.org/1999/xlink" x="0px" y="0px"
	 viewBox="0 0 114.24 42.73" style="enable-background:new 0 0 114.24 42.73;" xml:space="preserve">
<style type="text/css">
	.st0{fill:#212121;}
	.st1{fill:#EEEEEE;}
	.st2{fill:#EFEFEF;}
</style>
<title>cite_btn</title>
<path class="st0" d="M113.59,35.98c-2.51-1-2.67-2.77-1.81-5.45c0.14-0.9,0.36-1.79,0.67-2.65c1.76-6.43-0.08-11.69-4.43-16.14
	c-1.37-1.41-3.02-2.52-4.84-3.25c-3.85-1.89-7.9-3.33-12.07-4.3c-11.5-1.58-22.79-4.75-34.61-4.1c-3.6,0.2-7.16,0-10.76,0.31
	C38.83,0.91,31.92,0.02,25,2.01c-4.52,1.3-9,1.94-12.89-1.63c-0.7-0.27-1.5-0.07-2,0.49c-0.32,0.77-0.32,1.65,0,2.42
	c2.53,5.33,0.74,10.18-1.83,14.91c-2.37,4.61-4.56,9.36-6.55,14.23c-1.19,2.9-2.82,6.28-0.72,9.12c1.77,2.29,4.44,0.7,6.75-0.24
	c5.29-2.51,11.17-3.55,17-3c5.91,0.53,11.86,0.67,17.7,1.83c3.27,0.63,6.6,0.93,9.93,0.9c14.54,0,29.08-0.16,43.61-0.31h2.15
	c2.31,0,4.82-1.35,6.71,1.27c0.34,0.34,0.86,0.42,1.28,0.2c2.09-1.37,4.44-2.29,6.91-2.7C114.32,39.01,114.71,36.43,113.59,35.98z"
	/>
<g>
	<path class="st1" d="M72.72,18.25c-1.06,0.32-2.12,0.66-3.19,0.96c-1.35,0.38-1.64,0.81-1.62,2.23c0.01,0.67,0.24,0.86,0.9,0.92
		c0.72,0.07,1.38-0.42,2.11-0.11c0.35,0.15,0.74,0.27,0.68,0.69c-0.05,0.38-0.41,0.57-0.81,0.58c-0.28,0.01-0.56,0-0.84,0.01
		c-1.89,0.07-2.62,0.89-2.52,2.77c0.06,1.08,0.84,1.41,1.69,1.52c0.7,0.09,1.44,0.15,2.14-0.09c0.53-0.18,0.88-0.04,0.95,0.53
		c0.07,0.53-0.05,0.98-0.7,1.02c-1.53,0.11-3.03-0.12-4.46-0.61c-0.72-0.25-1.04-1.01-1.08-1.86c-0.06-1.09,0.32-2.23-0.39-3.26
		c-0.18-0.26,0.12-0.5,0.26-0.74c0.51-0.87,0.76-1.71-0.21-2.51c-0.7-0.58-0.39-1.18,0.28-1.51c1.61-0.79,3.33-1.3,5.07-1.71
		c0.73-0.17,1.18,0.36,1.72,0.67C72.72,17.93,72.72,18.09,72.72,18.25z"/>
	<path class="st1" d="M60.51,26c-0.12-2.42,0.33-4.42,0.23-6.46c-0.08-1.67-0.06-1.73-1.68-1.4c-0.6,0.12-1.09-0.13-1.61-0.26
		c-0.29-0.08-0.55-0.37-0.52-0.73c0.03-0.37,0.4-0.42,0.64-0.43c1.64-0.04,3.16-0.96,4.86-0.66c0.77,0.14,1.59,0.06,2.36-0.21
		c0.26-0.09,0.53-0.2,0.81-0.21c0.65-0.03,1.58-0.29,1.75,0.53c0.18,0.83-0.78,0.82-1.36,0.99c-0.34,0.1-0.7,0.12-1.05,0.19
		c-2.31,0.5-2.39,0.5-2.5,2.9c-0.09,2.06-0.08,4.13-0.25,6.19c-0.05,0.66,0.16,1.33,0.21,2c0.03,0.39,0.06,0.86-0.44,1
		c-0.48,0.13-0.81-0.17-1.07-0.57C60.2,27.86,60.61,26.71,60.51,26z"/>
	<path class="st2" d="M46.56,23.69c-0.07-2.81,1.06-5,3.4-6.57c0.48-0.32,0.99-0.52,1.56-0.53c0.45,0,0.92,0.09,1.01,0.64
		c0.08,0.51-0.25,0.81-0.7,0.99c-3.9,1.58-5.02,7-2.08,10.06c0.69,0.72,1.34,1.49,2.31,1.86c0.45,0.17,0.62,0.51,0.4,0.95
		c-0.2,0.41-0.54,0.35-0.92,0.23c-2.15-0.71-4.96-3.34-4.98-6.55C46.56,24.4,46.56,24.04,46.56,23.69z"/>
	<path class="st1" d="M56.16,20.47c0.02,2.75-0.65,5.46-0.49,8.22c0.03,0.45-0.16,0.81-0.66,0.82c-0.62,0.01-0.98-0.37-0.99-0.97
		c-0.03-1.32-0.12-2.65,0.04-3.95c0.23-1.86,0.48-3.71,0.43-5.58c-0.01-0.56-0.09-1.22,0.76-1.2c0.78,0.02,0.98,0.54,0.92,1.23
		C56.13,19.51,56.16,19.99,56.16,20.47z"/>
</g>
</svg>
