<?xml version="1.0" encoding="utf-8"?>
<!-- Generator: Adobe Illustrator 23.0.2, SVG Export Plug-In . SVG Version: 6.00 Build 0)  -->
<svg version="1.1" id="Layer_1" xmlns="http://www.w3.org/2000/svg" xmlns:xlink="http://www.w3.org/1999/xlink" x="0px" y="0px"
	 viewBox="0 0 1396 41" style="enable-background:new 0 0 1396 41;" xml:space="preserve">
<style type="text/css">
	.st0{opacity:0.5;fill:#212121;enable-background:new    ;}
</style>
<path id="Path_382" class="st0" d="M0,12.16c2.13-0.78,4.34-1.39,6.4-2.35c5.68-2.5,11.87-3.62,18.07-3.28
	c11.35,0.21,22.73,0,34.12,0c13.99-0.28,27.94,0,41.93,1c10.34,1.19,20.8,0.95,31.08-0.71c11.53-1.99,23.18-3.17,34.88-3.56
	c0.98,0.05,1.95,0.05,2.93,0c15.39-2.39,30.95-3.4,46.52-3.03c17.86-0.73,35.75,0.26,53.42,2.95c3.19,0.65,6.43,1.01,9.69,1.07
	c16.26,0,32.53,1.07,48.76,0.53c15.93-0.63,31.89-0.29,47.78,1c8.42,0.62,16.88,0.62,25.3,0c22.41-1.42,44.82-1.78,67.26-1.64h58.55
	c8.78,0,17.57,0.43,26.35,0.43c17.85,0,35.75-0.32,53.64,0c12.65,0,25.3,1,37.99,1.53c4.55,0.18,9.11,0.68,13.66,0.5
	c17.56-0.37,35.12,0.51,52.55,2.63c9,0.93,18.07,0.6,27.29,0.85c3.25-0.04,6.5,0.15,9.72,0.57c11.97,1.83,24.13,2.01,36.14,0.53
	c11.65-1.26,23.42-1.05,35.02,0.64c8.73,1.1,17.54,1.35,26.31,0.75c5.84-0.36,11.7,0.32,17.31,1.99c9.65,3.01,19.78,4.15,29.85,3.35
	c13.96-0.13,27.89-1.19,41.71-3.17c4.19-0.61,8.44-0.71,12.65-0.32c10.4,0.39,20.82,0.11,31.19-0.85c8.77-0.38,17.56-0.01,26.28,1.1
	c6.79,0.69,13.62,0.81,20.42,0.35c4.54-0.34,9.09-0.34,13.63,0c12.97,0.89,25.95,1.82,38.89,2.92c5.2,0.22,10.36,0.97,15.4,2.24
	c10.95,3.19,22.37,4.52,33.76,3.92c15.32-0.68,30.54,0.96,45.79,1.57c10.05,0.36,20.13,0.78,30.18,1.35
	c6.51,0.36,12.97,0.85,19.44,1.57c8.4,1.1,16.9,1.1,25.3,0c6.77-0.93,13.59-1.35,20.42-1.25c15.94,0,31.88-0.18,47.82,0.32
	c12.32,0.36,24.65,1.49,36.97,2.63c4.8,0.54,9.63,0.84,14.46,0.89c8.14,0.16,16.26,0.91,24.29,2.24c2.53,0.52,4.37,2.72,4.45,5.3
	c0,0.46-0.72,1.39-1.01,1.35c-2.49-0.36-5.02-0.82-7.52-1.35c-6.4-1.1-12.88-1.71-19.37-1.85c-12.65-0.82-25.3-1.92-37.91-2.78
	c-6.18-0.43-12.36-0.78-18.51-0.85h-32.2c-12.68-0.45-25.38,0.03-37.99,1.42c-5.18,0.61-10.4,0.61-15.58,0
	c-14.54-1.58-29.15-2.44-43.77-2.56c-5.53-0.07-11.06-0.43-16.55-1.07c-15.87-1.64-31.81-1.14-47.74-1.21
	c-8.78,0.05-17.51-1.15-25.95-3.56c-4.71-1.35-9.56-2.15-14.46-2.39c-7.48-0.39-14.89-1.21-22.37-1.74
	c-13.21-1.25-26.49-1.69-39.76-1.32c-8.14,0.16-16.29-0.31-24.36-1.39c-5.48-0.6-11-0.6-16.48,0c-6.47,0.71-12.97,1.03-19.48,0.96
	c-11.7-0.18-23.4,0.4-35.02,1.74c-12.87,1.35-25.95,1.39-38.93,1.67c-6.51-0.1-12.96-1.23-19.12-3.35
	c-4.97-1.55-10.16-2.27-15.36-2.14c-12.07,0.46-24.16-0.06-36.14-1.57c-10.05-1.02-20.19-0.9-30.22,0.36
	c-10.35,1.13-20.8,1.01-31.12-0.36c-6.77-0.83-13.6-1.17-20.42-1c-12.69-0.15-25.36-1.03-37.95-2.63
	c-4.52-0.58-9.07-0.81-13.63-0.68c-19.52,0.68-39-1.07-58.48-1.78c-14.64-0.57-29.28-0.46-43.91,0c-11.35,0.28-22.73,0-34.12-0.32
	c-8.13-0.28-16.27,0-24.36,0h-57.59c-19.19,0-39,0-58.48,1.57c-9.41,0.71-18.87,0.6-28.26-0.32c-16.55-1.6-33.14-0.68-49.73-0.71
	c-20.75,0-41.64,1.1-62.17-3.24c-1.27-0.32-2.56-0.49-3.87-0.53c-13.99,0-27.9-1.78-41.93-0.96c-5.86,0.36-11.71,0.21-17.57,0.21
	c-6.83-0.26-13.66,0.33-20.35,1.74c-1.57,0.39-3.19,0.61-4.81,0.64c-14.96,0.37-29.88,1.8-44.64,4.27
	c-4.5,0.65-9.06,0.81-13.59,0.46c-26.02-1.53-52.01-1.6-78.03-0.93c-1.3,0.09-2.6,0.09-3.9,0C20.27,11.1,9.46,13.01,0,18.03L0,12.16
	z"/>
</svg>
