<?xml version="1.0" encoding="utf-8"?>
<!-- Generator: Adobe Illustrator 23.0.2, SVG Export Plug-In . SVG Version: 6.00 Build 0)  -->
<svg version="1.1" id="Layer_1" xmlns="http://www.w3.org/2000/svg" xmlns:xlink="http://www.w3.org/1999/xlink" x="0px" y="0px"
	 viewBox="0 0 1401 52" style="enable-background:new 0 0 1401 52;" xml:space="preserve">
<style type="text/css">
	.st0{opacity:0.5;fill:#212121;enable-background:new    ;}
</style>
<path id="Path_209" class="st0" d="M1,20.84c0.01-0.23,0.12-0.45,0.3-0.59c0.18-0.14,0.42-0.2,0.64-0.16
	c6.12,0.39,12.27-0.43,18.07-2.42c5.75-1.46,11.42-3.1,17.13-4.48c4.49-1.21,8.81-2.97,12.87-5.23c3.68-1.65,7.59-2.72,11.6-3.17
	c10.84-2.14,21.9-1.03,32.89-0.5c7.77,0.59,15.59,0.11,23.24-1.42c10.58-1.9,21.32-2.73,32.06-2.49c4.88,0.27,9.72,1.01,14.46,2.21
	c15.1,2.47,30.43,3.12,45.68,1.96c13.32-0.77,26.67-0.65,39.97,0.36c9.34,0.98,18.75,1.16,28.12,0.53c1.98-0.18,3.98-0.18,5.96,0
	c24.68,2.39,49.41,1.07,74.13,1.1c12.01-0.48,24.04,0.2,35.92,2.04c6.24,1.13,12.56,1.68,18.9,1.64c15.14,0,30.18,1.85,45.25,3.35
	c15.87,1.55,31.86,1.43,47.71-0.36c10.84-1.21,21.68-2.88,32.53-3.03c10.19,0.04,20.36-0.83,30.4-2.6
	c6.89-1.31,13.91-1.85,20.93-1.6c13.16,0.43,26.28-0.75,39.39-0.96h22.44c4.88,0,9.76,0,14.46-0.29c15.58-1.07,31.15-2.1,46.66-3.56
	c7.47-0.45,14.97,0.32,22.19,2.28c9.87,2.31,19.88,3.31,29.82,4.77c7.23,1.07,14.78,1.82,22.08,3.1c7.24,1.22,14.6,1.66,21.94,1.32
	c24.22-0.93,48.43-1.99,72.65-2.74c8.2-0.24,16.4-0.01,24.58,0.71c23.6,2.1,47.31,1.74,70.95,2.1c12.04,0.21,24.07,0.57,36.14,0.36
	c11.2-0.21,22.41-0.89,33.58-1.74c5.13-0.39,10.27-0.39,15.4,0c8.3,0.9,16.66,1.2,25.01,0.89c17.56-0.11,35.1,0.82,52.55,2.78
	c13.59,1.21,27.18,2.06,40.73,3.56c5.1,0.53,10.19,1.32,15.29,2.07c17.78,2.53,35.74,3.35,53.6,5.27
	c11.66,0.9,23.24,2.62,34.66,5.16c8.52,2.14,17.32,3,26.09,2.56c16.79-0.38,33.53,1.88,49.62,6.69c9,2.31,18.2,3.78,27.47,4.38
	c3.97,0.44,7.89,1.25,11.71,2.42c1.52,0.75,3.07,1.92,1.77,3.56s-3.61,1.14-5.35,0.29c-9.61-1.57-19.23-3.03-28.91-4.73
	c-12.07-2.14-24.03-4.66-36.14-6.62c-3.92-0.59-7.89-0.77-11.85-0.53c-12.91,0.58-25.84-0.61-38.42-3.56
	c-6.78-1.63-13.66-2.82-20.6-3.56c-20.96-2.1-42.03-3.56-62.92-6.27c-15.22-1.92-30.54-3.38-45.9-4.2
	c-6.4-0.36-12.83-0.96-19.19-1.89c-16.79-1.92-33.71-2.61-50.6-2.07c-6.4,0-12.79-0.43-19.16-1c-5.53-0.52-11.1-0.52-16.63,0
	c-14.9,1.35-29.86,1.93-44.82,1.74c-19.59-0.39-39.21,0-58.84-0.46c-14.1-0.32-28.15-1.5-42.25-2.24c-7.22-0.37-14.46-0.37-21.68,0
	c-10.05,0.61-20.09,0.64-30.14,0.75c-4.12,0-8.24,0.29-12.32,0.64c-18.37,2.01-36.92,1.73-55.22-0.85
	c-11.89-1.96-23.82-3.56-35.71-5.3c-3.14-0.46-9.58-1.64-12.65-2.46c-8.2-1.74-16.63-2.07-24.94-0.96
	c-16.52,1.35-33.07,2.56-49.62,3.31c-11.02,0.5-22.16-0.53-33.14,0c-17.35,1.07-34.77-0.71-52.08,1.99
	c-9.4,1.46-18.87,2.17-28.34,2.7c-14.46,0.82-28.73,2.31-43.08,3.77c-12.52,1.25-25.14,1.25-37.66,0
	c-21.14-2.1-42.32-3.56-63.54-4.7c-2.74-0.2-5.47-0.57-8.17-1.1c-10.77-1.56-21.66-2.09-32.53-1.6c-19.19,0-38.42,0.82-57.57,0
	c-23.27-1.14-46.66-0.29-69.9-2.63c-4.33-0.44-8.69-0.44-13.01,0c-19.38,2.27-39,1.44-58.12-2.46c-12.61-2.67-25.3-1.17-37.8,0.75
	c-9.91,1.85-20.02,2.38-30.07,1.57c-11.11-0.94-22.29-0.48-33.29,1.39c-2.23,0.34-4.38,1.1-6.32,2.24
	c-5.97,3.06-12.35,5.25-18.94,6.51c-7.92,1.78-15.68,4.2-23.53,6.19l-3.25,0.85c-1.31,0.22-2.66-0.14-3.68-0.99
	c-1.01-0.84-1.6-2.1-1.59-3.42L1,20.84z"/>
</svg>
